<?xml version="1.0" encoding="UTF-8"?>
<!-- Generator: Adobe Illustrator 15.0.2, SVG Export Plug-In . SVG Version: 6.00 Build 0)  -->
<!DOCTYPE svg PUBLIC "-//W3C//DTD SVG 1.1//EN" "http://www.w3.org/Graphics/SVG/1.1/DTD/svg11.dtd">
<svg xmlns="http://www.w3.org/2000/svg" xmlns:xlink="http://www.w3.org/1999/xlink" version="1.1" id="Layer_1" x="0px" y="0px" width="512px" height="431.989px" viewBox="0 0 512 431.989" enable-background="new 0 0 512 431.989" xml:space="preserve">
<path d="M143.996,224.003h47.999v79.991h80.006v47.998h-80.006v79.997h-47.999v-79.997H64v-47.998h79.996V224.003z M255.995,95.997  c46.667,0,66.669,26.669,59.939,82.642c6.01,3.443,10.065,9.927,10.065,17.358c0,9.088-6.079,16.766-14.378,19.203  c-3.464,12.354-8.852,23.309-15.621,32.062v42.068c22.213,4.44,39.985,6.671,66.659,19.992  c26.659,13.342,35.56,25.559,53.343,43.342v63.339H207.996v-48.004h79.991v-80.012h-71.993v-40.726l-7.998-12.592v-26.674h-17.999  c-2.512-3.345-4.002-7.495-4.002-11.999c0-7.432,4.051-13.915,10.065-17.358C189.331,122.666,209.328,95.997,255.995,95.997z   M95.997,416.003v-48.004H128v48.004H95.997z M0,320v-63.334c17.777-17.782,26.669-29.999,53.332-43.341  c26.669-13.327,44.446-15.553,66.665-19.993v-42.067c-6.77-8.759-12.158-19.702-15.626-32.067  c-8.305-2.433-14.373-10.109-14.373-19.198c0-7.431,4.051-13.914,10.065-17.358C93.333,26.669,113.331,0,159.997,0  c43.771,0,64.079,35.461,60.877,84.556c-28.879,11.441-44.875,27.443-44.812,74.08c-6.015,3.449-10.065,9.933-10.065,17.363  c0,9.088,2.067,20.763,10.372,23.195l2.876,8.802H128v79.991H47.999V320H0z M378.656,297.323  c-26.664-13.322-36.443-15.553-58.656-19.993v-46.064c6.77-8.763,12.157-19.707,15.621-32.071  c8.3-2.433,10.372-14.107,10.372-23.195c0-7.431-4.046-13.914-10.066-17.363c0.06-46.637-15.927-62.639-44.811-74.08  C287.909,35.461,308.218,0,351.992,0c46.662,0,66.675,26.669,59.944,82.641c6,3.444,10.065,9.928,10.065,17.358  c0,9.089-6.078,16.766-14.388,19.198c-3.453,12.365-8.842,23.309-15.611,32.067v42.067c22.203,4.44,39.986,6.666,66.649,19.993  c26.664,13.342,35.565,25.559,53.348,43.341V320H411.522C398.654,306.668,400.766,308.375,378.656,297.323z" fill="#000000"/>
</svg>
