<?xml version="1.0" encoding="UTF-8"?>
<!-- Generator: Adobe Illustrator 15.0.2, SVG Export Plug-In . SVG Version: 6.00 Build 0)  -->
<!DOCTYPE svg PUBLIC "-//W3C//DTD SVG 1.1//EN" "http://www.w3.org/Graphics/SVG/1.1/DTD/svg11.dtd">
<svg xmlns="http://www.w3.org/2000/svg" xmlns:xlink="http://www.w3.org/1999/xlink" version="1.1" id="Layer_1" x="0px" y="0px" width="512px" height="537.871px" viewBox="0 0 512 537.871" enable-background="new 0 0 512 537.871" xml:space="preserve">
<path d="M0,356.848l41.77-41.758l69.627,69.621l69.62-69.621l41.776,41.758l-69.62,69.633l69.62,69.62l-41.776,41.771l-69.62-69.621  L41.77,537.871L0,496.101l69.62-69.62L0,356.848z M275.694,0c68.916,0,98.455,39.383,88.52,122.055  c8.892,5.089,14.867,14.666,14.867,25.64c0,13.428-8.964,24.76-21.231,28.355c-5.113,18.261-13.068,34.427-23.077,47.362v62.139  c32.818,6.56,59.078,9.839,98.455,29.539c39.401,19.677,52.513,37.737,78.772,63.985v93.548H238.698l-46.143-46.143l69.627-69.633  l-68.097-66.924l22.531-4.373v-62.139c-10.003-12.936-17.964-29.102-23.084-47.362c-12.268-3.596-21.225-14.928-21.225-28.355  c0-10.974,5.981-20.551,14.866-25.64C177.233,39.383,206.772,0,275.694,0z M118.155,315.09c15.42-7.725,28.829-12.911,41.406-16.773  l-47.588,47.576l-17.345-17.345L118.155,315.09z" fill="#000000"/>
</svg>
