<?xml version="1.0" encoding="UTF-8"?>
<!-- Generator: Adobe Illustrator 15.0.2, SVG Export Plug-In . SVG Version: 6.00 Build 0)  -->
<!DOCTYPE svg PUBLIC "-//W3C//DTD SVG 1.1//EN" "http://www.w3.org/Graphics/SVG/1.1/DTD/svg11.dtd">
<svg xmlns="http://www.w3.org/2000/svg" xmlns:xlink="http://www.w3.org/1999/xlink" version="1.1" id="Layer_1" x="0px" y="0px" width="512px" height="512px" viewBox="0 0 512 512" enable-background="new 0 0 512 512" xml:space="preserve">
<path d="M0,362.658h277.342v64H0V362.658z M256,0c74.658,0,106.658,42.664,95.895,132.224C361.526,137.737,368,148.112,368,160  c0,14.546-9.711,26.822-23,30.717c-5.539,19.783-14.158,37.296-25,51.31v67.315c35.553,7.105,64,10.658,106.658,32  c42.684,21.316,56.895,40.882,85.342,69.316V512H0v-64h298.658V341.342H85.336C128,320,156.447,316.447,192,309.342v-67.315  c-10.836-14.014-19.461-31.526-25.007-51.31C153.704,186.822,144,174.546,144,160c0-11.888,6.48-22.263,16.105-27.776  C149.336,42.664,181.336,0,256,0z" fill="#000000"/>
</svg>
