<?xml version="1.0" encoding="iso-8859-1"?>
<!-- Generator: Adobe Illustrator 16.0.0, SVG Export Plug-In . SVG Version: 6.00 Build 0)  -->
<!DOCTYPE svg PUBLIC "-//W3C//DTD SVG 1.1//EN" "http://www.w3.org/Graphics/SVG/1.1/DTD/svg11.dtd">
<svg version="1.1" id="Capa_1" xmlns="http://www.w3.org/2000/svg" xmlns:xlink="http://www.w3.org/1999/xlink" x="0px" y="0px"
	 width="339.999px" height="339.999px" viewBox="0 0 339.999 339.999" style="enable-background:new 0 0 339.999 339.999;"
	 xml:space="preserve">
<g>
	<g>
		<g>
			<path d="M329.242,276.007h-80c-2.762,0-5,2.239-5,5v16.472c0,2.763,2.238,5,5,5h80c2.762,0,5-2.237,5-5v-16.472
				C334.242,278.246,332.004,276.007,329.242,276.007z"/>
			<g>
				<path d="M192.511,64.521c-2.746-2.745-7.162-2.862-10.046-0.268c-14.861,13.354-93,81.184-171.941,105.162l-0.855,0.259
					c-2.051,0.623-3.727,2.114-4.582,4.082c-0.854,1.969-0.801,4.209,0.146,6.133l0.395,0.799c0.004,0.012,0.008,0.02,0.016,0.027
					c0.271,0.564,11.652,24.328,13.133,57.812c0.916,20.819-2.102,40.832-8.945,59.519c-2.441,0.19-4.834,1.215-6.703,3.084
					c-4.168,4.167-4.166,10.921,0,15.087s10.92,4.167,15.086,0c2.408-2.409,3.416-5.682,3.039-8.82l76.486-76.488
					c1.908-1.907,2.609-4.71,1.824-7.289c-2.703-8.891-0.291-18.509,6.299-25.098c4.756-4.758,11.078-7.377,17.809-7.377
					c6.731,0,13.059,2.619,17.813,7.377c4.758,4.757,7.375,11.08,7.375,17.809c0,6.728-2.617,13.051-7.377,17.81
					c-4.754,4.754-11.074,7.371-17.799,7.372c-2.494,0-4.953-0.361-7.311-1.075c-2.582-0.782-5.379-0.08-7.283,1.824L32.61,318.749
					c-3.143-0.378-6.416,0.628-8.826,3.038c-4.166,4.166-4.164,10.921,0,15.087c4.166,4.166,10.922,4.167,15.088,0
					c1.869-1.869,2.893-4.258,3.084-6.702c16.48-6.036,34.014-9.104,52.15-9.104c2.275,0,4.604,0.049,6.922,0.145
					c33.588,1.385,58.088,13.064,58.314,13.173c0,0,2.203,1.153,3.996,1.13c0.99-0.012,1.98-0.2,2.91-0.603
					c1.963-0.855,3.457-2.529,4.08-4.579l0.258-0.854c23.979-78.942,91.807-157.083,105.16-171.943
					c2.594-2.888,2.477-7.3-0.271-10.046L192.511,64.521z"/>
				<path d="M337.857,86.973L253.019,2.138c-1.368-1.37-3.228-2.139-5.163-2.138c-1.938-0.001-3.797,0.768-5.164,2.137
					l-36.295,36.299c-2.854,2.853-2.854,7.477,0,10.329l84.84,84.834c1.369,1.371,3.225,2.14,5.164,2.14
					c1.936,0,3.793-0.771,5.161-2.14l36.298-36.297C340.711,94.45,340.711,89.826,337.857,86.973z"/>
			</g>
		</g>
	</g>
</g>
<g>
</g>
<g>
</g>
<g>
</g>
<g>
</g>
<g>
</g>
<g>
</g>
<g>
</g>
<g>
</g>
<g>
</g>
<g>
</g>
<g>
</g>
<g>
</g>
<g>
</g>
<g>
</g>
<g>
</g>
</svg>
